<svg width="403" height="61" viewBox="0 0 403 61" version="1.1" xmlns="http://www.w3.org/2000/svg" xmlns:xlink="http://www.w3.org/1999/xlink">
<title>LongView Designs</title>
<desc>Created using Figma</desc>
<g id="Canvas" transform="translate(5 -11)">
<g id="LongView Designs">
<use xlink:href="#path0_fill"/>
</g>
</g>
<defs>
<path id="path0_fill" d="M 23.82 60.22C 22.26 60.22 20.54 59.88 18.66 59.2C 16.82 58.52 14.38 57.48 11.34 56.08L 8.22 54.64C 6.1 57 3.88 58.18 1.56 58.18C 0.36 58.18 -0.7 57.9 -1.62 57.34C -2.54 56.78 -3.24 56.08 -3.72 55.24C -4.2 54.44 -4.44 53.68 -4.44 52.96C -4.44 52.16 -4.08 51.52 -3.36 51.04C -2.68 50.56 -1.58 50.32 -0.06 50.32C 1.7 50.32 4.16 50.74 7.32 51.58C 8.32 49.82 9.26 47.74 10.14 45.34C 11.02 42.9 12.1 39.64 13.38 35.56L 14.82 31C 12.98 30.4 11.52 29.52 10.44 28.36C 9.4 27.2 8.88 25.94 8.88 24.58C 8.88 23.42 9.22 22.34 9.9 21.34C 10.62 20.34 11.52 19.84 12.6 19.84C 12.32 20.2 12.12 20.74 12 21.46C 11.88 22.18 11.82 22.88 11.82 23.56C 11.82 25.04 12.12 26.3 12.72 27.34C 13.36 28.38 14.2 29.18 15.24 29.74C 17.08 24.1 19 19.7 21 16.54C 23 13.38 25.38 11.8 28.14 11.8C 29.62 11.8 30.96 12.28 32.16 13.24C 33.36 14.2 33.96 15.76 33.96 17.92C 33.96 19.92 33.42 22 32.34 24.16C 31.26 26.28 29.62 28.08 27.42 29.56C 25.26 31 22.64 31.72 19.56 31.72L 18.6 31.72C 16.96 36.68 15.5 40.78 14.22 44.02C 12.94 47.26 11.52 50.04 9.96 52.36C 10.28 52.48 10.62 52.6 10.98 52.72C 11.34 52.8 11.7 52.9 12.06 53.02C 15.46 54.06 18.18 54.82 20.22 55.3C 22.26 55.82 24.14 56.08 25.86 56.08C 27.46 56.08 28.88 55.76 30.12 55.12C 29.48 56.92 28.64 58.22 27.6 59.02C 26.56 59.82 25.3 60.22 23.82 60.22ZM 18.96 30.58C 21.2 30.58 23.22 29.76 25.02 28.12C 26.82 26.48 28.22 24.54 29.22 22.3C 30.22 20.02 30.72 18.02 30.72 16.3C 30.72 15.22 30.52 14.46 30.12 14.02C 29.72 13.54 29.2 13.3 28.56 13.3C 26.88 13.3 25.34 14.74 23.94 17.62C 22.54 20.46 20.88 24.78 18.96 30.58ZM 1.32 56.44C 3 56.44 4.54 55.52 5.94 53.68C 2.98 52.48 0.7 51.88 -0.9 51.88C -2.22 51.88 -2.88 52.26 -2.88 53.02C -2.88 53.78 -2.46 54.54 -1.62 55.3C -0.82 56.06 0.16 56.44 1.32 56.44ZM 37.3627 56.92C 35.7227 56.92 34.5227 56.42 33.7627 55.42C 33.0027 54.42 32.6227 53.1 32.6227 51.46C 32.6227 49.82 32.9627 48.1 33.6427 46.3C 34.3227 44.5 35.2027 43 36.2827 41.8C 37.3627 40.6 38.4427 40 39.5227 40C 39.8827 40 40.3027 40.1 40.7827 40.3C 40.3027 40.7 39.7227 41.58 39.0427 42.94C 38.3627 44.3 37.7627 45.76 37.2427 47.32C 36.7627 48.84 36.5227 50.08 36.5227 51.04C 36.5227 53.32 37.2427 54.46 38.6827 54.46C 39.5227 54.46 40.5227 54.02 41.6827 53.14C 42.8427 52.26 43.9827 51.1 45.1027 49.66C 43.9827 48.74 43.1027 47.54 42.4627 46.06C 41.8627 44.58 41.5627 43.04 41.5627 41.44C 41.5627 39.36 42.0827 37.58 43.1227 36.1C 44.2027 34.62 45.6427 33.88 47.4427 33.88C 48.9627 33.88 50.0227 34.3 50.6227 35.14C 51.2627 35.94 51.5827 37.06 51.5827 38.5C 51.5827 40.02 51.2027 41.74 50.4427 43.66C 49.7227 45.54 48.7627 47.38 47.5627 49.18C 48.2827 49.58 49.0427 49.78 49.8427 49.78C 51.0027 49.78 52.2027 49.44 53.4427 48.76C 54.6827 48.04 55.6227 46.94 56.2627 45.46L 56.9827 46.06C 56.2227 47.82 55.1427 49.12 53.7427 49.96C 52.3427 50.8 50.9027 51.22 49.4227 51.22C 48.3427 51.22 47.3827 51.02 46.5427 50.62C 45.1027 52.5 43.5627 54.02 41.9227 55.18C 40.3227 56.34 38.8027 56.92 37.3627 56.92ZM 46.1827 48.1C 47.2227 46.54 48.0627 44.96 48.7027 43.36C 49.3427 41.72 49.6627 40.22 49.6627 38.86C 49.6627 37.74 49.4827 36.9 49.1227 36.34C 48.8027 35.78 48.3827 35.5 47.8627 35.5C 47.3027 35.5 46.7227 35.78 46.1227 36.34C 45.5627 36.86 45.0827 37.6 44.6827 38.56C 44.3227 39.48 44.1427 40.5 44.1427 41.62C 44.1427 42.86 44.3027 44.06 44.6227 45.22C 44.9827 46.34 45.5027 47.3 46.1827 48.1ZM 74.5167 56.2C 73.1567 56.2 72.1167 55.84 71.3967 55.12C 70.6767 54.44 70.3167 53.52 70.3167 52.36C 70.3167 51.84 70.3967 51.24 70.5567 50.56C 70.7567 49.84 70.9567 49.14 71.1567 48.46C 71.3967 47.74 71.5967 46.98 71.7567 46.18C 71.9567 45.38 72.0567 44.66 72.0567 44.02C 72.0567 42.06 71.2567 41.08 69.6567 41.08C 68.1367 41.08 66.5367 41.88 64.8567 43.48C 63.2167 45.08 61.7367 46.86 60.4167 48.82C 59.1367 50.78 57.6767 53.14 56.0367 55.9C 55.3567 55.9 54.7367 55.78 54.1767 55.54C 53.6167 55.34 53.1767 55.02 52.8567 54.58C 52.8567 54.38 53.1167 53.66 53.6367 52.42C 54.6367 49.86 55.4567 47.54 56.0967 45.46C 56.7367 43.34 57.0767 41.46 57.1167 39.82C 57.3967 39.5 57.7967 39.22 58.3167 38.98C 58.8367 38.7 59.3567 38.56 59.8767 38.56C 60.9567 38.56 61.4967 39.08 61.4967 40.12C 61.4967 40.72 61.3167 41.78 60.9567 43.3C 60.5967 44.78 60.1367 46.36 59.5767 48.04C 61.4967 45.08 63.5367 42.58 65.6967 40.54C 67.8567 38.5 69.9767 37.48 72.0567 37.48C 73.5367 37.48 74.6367 38.02 75.3567 39.1C 76.1167 40.14 76.4967 41.4 76.4967 42.88C 76.4967 43.76 76.3767 44.6 76.1367 45.4C 75.9367 46.2 75.6167 47.12 75.1767 48.16C 74.8167 49.04 74.5367 49.8 74.3367 50.44C 74.1367 51.08 74.0367 51.72 74.0367 52.36C 74.0367 53.88 74.6367 54.64 75.8367 54.64C 77.1967 54.64 78.5967 53.74 80.0367 51.94C 81.5167 50.14 82.9167 47.92 84.2367 45.28L 84.8967 46.06C 82.0167 52.82 78.5567 56.2 74.5167 56.2ZM 85.3659 71.8C 84.4059 71.8 83.5859 71.5 82.9059 70.9C 82.2259 70.34 81.8859 69.48 81.8859 68.32C 81.8859 66.84 82.4659 65.46 83.6259 64.18C 84.7859 62.94 86.1059 61.86 87.5859 60.94C 89.1059 60.06 91.1059 59 93.5859 57.76C 94.7059 54.88 95.7259 51.58 96.6459 47.86C 93.0859 52.98 89.8259 55.54 86.8659 55.54C 85.4659 55.54 84.3659 55.02 83.5659 53.98C 82.7659 52.9 82.3659 51.48 82.3659 49.72C 82.3659 47.08 83.2059 44.56 84.8859 42.16C 86.6059 39.76 88.7059 37.84 91.1859 36.4C 93.7059 34.92 96.0659 34.18 98.2659 34.18C 99.3459 34.18 100.146 34.36 100.666 34.72C 101.226 35.08 101.506 35.54 101.506 36.1C 101.506 36.42 101.406 36.7 101.206 36.94C 101.046 37.14 100.906 37.26 100.786 37.3C 100.386 36.7 99.5859 36.4 98.3859 36.4C 96.3859 36.4 94.4459 37.16 92.5659 38.68C 90.7259 40.2 89.2259 42.04 88.0659 44.2C 86.9059 46.36 86.3259 48.3 86.3259 50.02C 86.3259 50.98 86.5059 51.72 86.8659 52.24C 87.2659 52.72 87.7859 52.96 88.4259 52.96C 89.5059 52.96 90.8459 52.22 92.4459 50.74C 94.0859 49.26 95.7059 47.36 97.3059 45.04L 98.0259 41.86C 98.1859 41.1 98.5059 40.4 98.9859 39.76C 99.5059 39.12 100.206 38.8 101.086 38.8C 101.446 38.8 101.866 38.86 102.346 38.98C 102.346 40.06 101.906 42.24 101.026 45.52C 100.146 48.76 99.0459 52.06 97.7259 55.42C 99.8059 54.42 101.726 53.04 103.486 51.28C 105.286 49.48 106.626 47.48 107.506 45.28L 108.286 45.88C 107.446 48.32 105.926 50.54 103.726 52.54C 101.566 54.54 99.3459 56.08 97.0659 57.16C 95.1859 61.72 93.2859 65.3 91.3659 67.9C 89.4459 70.5 87.4459 71.8 85.3659 71.8ZM 85.1859 69.88C 86.1059 69.88 87.2459 69 88.6059 67.24C 90.0059 65.52 91.4459 62.9 92.9259 59.38C 90.0059 60.86 87.7459 62.24 86.1459 63.52C 84.5459 64.8 83.7459 66.22 83.7459 67.78C 83.7459 68.42 83.8659 68.92 84.1059 69.28C 84.3859 69.68 84.7459 69.88 85.1859 69.88ZM 118.596 60.22C 117.356 60.22 116.176 59.86 115.056 59.14C 113.976 58.42 113.436 57.18 113.436 55.42C 113.436 54.34 113.656 52.96 114.096 51.28C 114.536 49.56 115.236 47.18 116.196 44.14C 117.756 39.18 118.936 35.02 119.736 31.66C 120.576 28.26 120.996 25 120.996 21.88C 120.996 20 120.936 18.5 120.816 17.38C 120.696 16.26 120.376 15.34 119.856 14.62C 119.336 13.86 118.516 13.48 117.396 13.48C 116.036 13.48 114.876 14.02 113.916 15.1C 112.996 16.14 112.316 17.44 111.876 19C 111.436 20.56 111.216 22.08 111.216 23.56C 111.216 24.88 111.396 25.96 111.756 26.8C 110.276 26.8 109.196 26.4 108.516 25.6C 107.836 24.8 107.496 23.76 107.496 22.48C 107.496 20.84 107.996 19.2 108.996 17.56C 110.036 15.88 111.396 14.5 113.076 13.42C 114.796 12.34 116.596 11.8 118.476 11.8C 120.916 11.8 122.756 12.76 123.996 14.68C 125.236 16.56 125.856 19.16 125.856 22.48C 125.856 25.4 125.456 28.48 124.656 31.72C 123.856 34.96 122.716 38.86 121.236 43.42C 120.196 46.58 119.416 49.14 118.896 51.1C 118.376 53.06 118.116 54.7 118.116 56.02C 118.116 56.78 118.236 57.36 118.476 57.76C 118.716 58.16 119.156 58.36 119.796 58.36C 121.996 58.36 124.796 56.26 128.196 52.06C 131.596 47.86 134.556 42.9 137.076 37.18C 139.636 31.46 140.916 26.52 140.916 22.36C 140.916 20.48 140.616 19.06 140.016 18.1C 139.456 17.1 138.656 16.44 137.616 16.12C 138.176 15.2 138.756 14.52 139.356 14.08C 139.956 13.6 140.536 13.36 141.096 13.36C 142.056 13.36 142.896 13.94 143.616 15.1C 144.376 16.26 144.756 17.9 144.756 20.02C 144.756 24.3 143.256 29.68 140.256 36.16C 137.256 42.6 133.676 48.22 129.516 53.02C 125.396 57.82 121.756 60.22 118.596 60.22ZM 153.903 29.08C 153.183 29.08 152.583 28.92 152.103 28.6C 151.663 28.24 151.443 27.74 151.443 27.1C 151.443 26.3 151.923 25.58 152.883 24.94C 153.843 24.3 154.823 23.98 155.823 23.98C 157.143 23.98 157.803 24.6 157.803 25.84C 157.803 26.6 157.383 27.34 156.543 28.06C 155.743 28.74 154.863 29.08 153.903 29.08ZM 146.703 56.56C 145.223 56.56 144.083 56.08 143.283 55.12C 142.483 54.2 142.083 53 142.083 51.52C 142.083 49.96 142.523 47.8 143.403 45.04C 144.323 42.28 145.443 39.86 146.763 37.78C 148.123 35.7 149.443 34.66 150.723 34.66C 151.083 34.66 151.383 34.78 151.623 35.02C 151.903 35.26 152.043 35.58 152.043 35.98C 152.043 36.54 151.403 37.88 150.123 40C 148.803 42.2 147.743 44.18 146.943 45.94C 146.183 47.66 145.803 49.3 145.803 50.86C 145.803 52.26 146.023 53.22 146.463 53.74C 146.943 54.22 147.703 54.46 148.743 54.46C 151.863 54.46 154.943 51.4 157.983 45.28L 158.523 45.88C 157.403 49.24 155.743 51.86 153.543 53.74C 151.383 55.62 149.103 56.56 146.703 56.56ZM 163.335 57.64C 160.975 57.64 159.155 56.98 157.875 55.66C 156.635 54.38 156.015 52.72 156.015 50.68C 156.015 48.32 156.795 45.78 158.355 43.06C 159.915 40.34 161.875 38.06 164.235 36.22C 166.635 34.34 168.975 33.4 171.255 33.4C 173.735 33.4 174.975 34.62 174.975 37.06C 174.975 39.02 174.235 40.86 172.755 42.58C 171.275 44.26 169.375 45.64 167.055 46.72C 164.735 47.8 162.415 48.46 160.095 48.7C 159.935 49.38 159.855 50.1 159.855 50.86C 159.855 52.3 160.215 53.5 160.935 54.46C 161.655 55.42 162.875 55.9 164.595 55.9C 167.035 55.9 169.495 54.88 171.975 52.84C 174.455 50.8 176.475 48.28 178.035 45.28L 178.755 45.82C 177.155 49.38 174.935 52.24 172.095 54.4C 169.255 56.56 166.335 57.64 163.335 57.64ZM 160.395 47.56C 162.075 46.96 163.835 46.12 165.675 45.04C 167.515 43.96 169.075 42.7 170.355 41.26C 171.675 39.78 172.335 38.24 172.335 36.64C 172.335 36.16 172.235 35.82 172.035 35.62C 171.875 35.38 171.555 35.26 171.075 35.26C 169.835 35.26 168.475 35.88 166.995 37.12C 165.555 38.36 164.215 39.94 162.975 41.86C 161.775 43.78 160.915 45.68 160.395 47.56ZM 193.756 57.34C 191.596 57.34 190.516 55.4 190.516 51.52C 190.516 50.08 190.656 48.28 190.936 46.12C 189.336 49.32 187.736 51.9 186.136 53.86C 184.576 55.82 182.976 56.8 181.336 56.8C 180.056 56.8 178.976 56.2 178.096 55C 177.256 53.84 176.836 52.42 176.836 50.74C 176.836 49.26 177.136 47.44 177.736 45.28C 178.376 43.08 179.116 41.18 179.956 39.58C 180.836 37.94 181.556 37.12 182.116 37.12C 182.436 37.12 182.876 37.24 183.436 37.48C 184.036 37.72 184.336 38 184.336 38.32C 183.496 39.6 182.616 41.5 181.696 44.02C 180.776 46.5 180.316 48.62 180.316 50.38C 180.316 51.3 180.456 52.2 180.736 53.08C 181.016 53.96 181.576 54.4 182.416 54.4C 183.656 54.4 185.036 53.34 186.556 51.22C 188.076 49.06 189.696 46.3 191.416 42.94C 191.736 41.26 191.996 40.06 192.196 39.34C 192.436 38.58 192.656 38.1 192.856 37.9C 193.096 37.66 193.416 37.54 193.816 37.54C 194.336 37.54 194.756 37.66 195.076 37.9C 195.396 38.1 195.556 38.42 195.556 38.86C 195.556 38.98 195.516 39.2 195.436 39.52C 194.996 41 194.596 42.96 194.236 45.4C 193.916 47.84 193.756 50.06 193.756 52.06C 193.756 54.02 194.196 55 195.076 55C 196.196 55 197.656 53.76 199.456 51.28C 201.256 48.76 202.896 45.9 204.376 42.7C 204.376 37.62 205.376 35.08 207.376 35.08C 208.056 35.08 208.576 35.34 208.936 35.86C 209.336 36.34 209.536 36.84 209.536 37.36C 209.536 37.76 209.336 38.32 208.936 39.04C 208.456 39.96 208.076 40.88 207.796 41.8C 207.556 42.68 207.436 43.88 207.436 45.4C 207.436 46.72 207.616 47.82 207.976 48.7C 208.376 49.54 209.136 49.96 210.256 49.96C 211.136 49.96 211.956 49.62 212.716 48.94C 213.476 48.26 214.236 47.12 214.996 45.52L 215.776 46.12C 214.336 49.48 212.356 51.16 209.836 51.16C 208.596 51.16 207.536 50.74 206.656 49.9C 205.816 49.06 205.196 47.8 204.796 46.12C 203.116 49.24 201.276 51.9 199.276 54.1C 197.316 56.26 195.476 57.34 193.756 57.34ZM 239.233 60.22C 237.793 60.22 236.533 60.02 235.453 59.62C 234.413 59.26 233.533 58.56 232.813 57.52C 233.853 52.52 235.513 46.32 237.793 38.92C 240.113 31.48 241.913 26.08 243.193 22.72C 243.673 21.44 244.313 20.18 245.113 18.94C 245.913 17.7 246.833 17.08 247.873 17.08C 248.433 17.08 248.993 17.28 249.553 17.68C 247.153 23.24 244.713 29.92 242.233 37.72C 239.793 45.52 237.913 52.42 236.593 58.42C 237.553 58.58 238.413 58.66 239.173 58.66C 243.293 58.66 247.233 57.12 250.993 54.04C 254.753 50.96 257.793 47.02 260.113 42.22C 262.433 37.38 263.593 32.5 263.593 27.58C 263.593 22.9 262.493 19.38 260.293 17.02C 258.093 14.62 255.093 13.42 251.293 13.42C 248.733 13.42 246.393 13.94 244.273 14.98C 242.193 15.98 240.553 17.38 239.353 19.18C 238.153 20.98 237.553 22.96 237.553 25.12C 237.553 26 237.653 26.74 237.853 27.34C 236.613 27.34 235.693 27.04 235.093 26.44C 234.533 25.8 234.253 24.98 234.253 23.98C 234.253 22.1 235.113 20.22 236.833 18.34C 238.553 16.46 240.853 14.9 243.733 13.66C 246.653 12.42 249.773 11.8 253.093 11.8C 258.173 11.8 261.933 13.3 264.373 16.3C 266.813 19.3 268.033 23.28 268.033 28.24C 268.033 33.84 266.613 39.1 263.773 44.02C 260.973 48.94 257.333 52.86 252.853 55.78C 248.413 58.74 243.873 60.22 239.233 60.22ZM 274.722 57.64C 272.362 57.64 270.542 56.98 269.262 55.66C 268.022 54.38 267.402 52.72 267.402 50.68C 267.402 48.32 268.182 45.78 269.742 43.06C 271.302 40.34 273.262 38.06 275.622 36.22C 278.022 34.34 280.362 33.4 282.642 33.4C 285.122 33.4 286.362 34.62 286.362 37.06C 286.362 39.02 285.622 40.86 284.142 42.58C 282.662 44.26 280.762 45.64 278.442 46.72C 276.122 47.8 273.802 48.46 271.482 48.7C 271.322 49.38 271.242 50.1 271.242 50.86C 271.242 52.3 271.602 53.5 272.322 54.46C 273.042 55.42 274.262 55.9 275.982 55.9C 278.422 55.9 280.882 54.88 283.362 52.84C 285.842 50.8 287.862 48.28 289.422 45.28L 290.142 45.82C 288.542 49.38 286.322 52.24 283.482 54.4C 280.642 56.56 277.722 57.64 274.722 57.64ZM 271.782 47.56C 273.462 46.96 275.222 46.12 277.062 45.04C 278.902 43.96 280.462 42.7 281.742 41.26C 283.062 39.78 283.722 38.24 283.722 36.64C 283.722 36.16 283.622 35.82 283.422 35.62C 283.262 35.38 282.942 35.26 282.462 35.26C 281.222 35.26 279.862 35.88 278.382 37.12C 276.942 38.36 275.602 39.94 274.362 41.86C 273.162 43.78 272.302 45.68 271.782 47.56ZM 294.523 58.06C 291.923 58.06 290.023 57.28 288.823 55.72C 287.623 54.16 287.023 52.32 287.023 50.2C 287.023 48.6 287.303 47.48 287.863 46.84C 288.423 46.16 289.023 45.68 289.663 45.4C 290.343 45.12 290.743 44.92 290.863 44.8C 293.423 42 295.403 39.1 296.803 36.1L 296.803 35.38C 296.803 34.02 297.023 33 297.463 32.32C 297.943 31.64 298.503 31.3 299.143 31.3C 299.463 31.3 299.703 31.38 299.863 31.54C 300.023 31.66 300.103 31.84 300.103 32.08C 300.103 32.24 300.043 32.58 299.923 33.1C 299.803 33.58 299.743 34.12 299.743 34.72C 299.743 35.52 299.843 36.38 300.043 37.3C 300.283 38.18 300.643 39.34 301.123 40.78C 301.683 42.5 302.103 44 302.383 45.28C 302.703 46.56 302.863 47.86 302.863 49.18C 302.863 50.22 302.743 51.2 302.503 52.12C 303.943 51.88 305.283 51.24 306.523 50.2C 307.763 49.12 308.943 47.5 310.063 45.34L 310.603 45.94C 309.883 48.02 308.783 49.66 307.303 50.86C 305.823 52.06 304.123 52.8 302.203 53.08C 301.603 54.72 300.623 55.96 299.263 56.8C 297.903 57.64 296.323 58.06 294.523 58.06ZM 298.723 52.06C 298.883 51.02 298.963 50.08 298.963 49.24C 298.963 48.04 298.863 46.84 298.663 45.64C 298.463 44.44 298.163 43.06 297.763 41.5C 297.403 39.9 297.183 38.86 297.103 38.38C 295.063 41.74 293.123 44.34 291.283 46.18C 291.923 47.58 292.883 48.82 294.163 49.9C 295.483 50.98 297.003 51.7 298.723 52.06ZM 294.643 55.96C 296.483 55.96 297.743 54.98 298.423 53.02C 296.823 52.7 295.363 52.08 294.043 51.16C 292.723 50.2 291.723 49.16 291.043 48.04C 290.163 48.08 289.723 48.78 289.723 50.14C 289.723 51.66 290.163 53.02 291.043 54.22C 291.963 55.38 293.163 55.96 294.643 55.96ZM 320.426 29.08C 319.706 29.08 319.106 28.92 318.626 28.6C 318.186 28.24 317.966 27.74 317.966 27.1C 317.966 26.3 318.446 25.58 319.406 24.94C 320.366 24.3 321.346 23.98 322.346 23.98C 323.666 23.98 324.326 24.6 324.326 25.84C 324.326 26.6 323.906 27.34 323.066 28.06C 322.266 28.74 321.386 29.08 320.426 29.08ZM 313.226 56.56C 311.746 56.56 310.606 56.08 309.806 55.12C 309.006 54.2 308.606 53 308.606 51.52C 308.606 49.96 309.046 47.8 309.926 45.04C 310.846 42.28 311.966 39.86 313.286 37.78C 314.646 35.7 315.966 34.66 317.246 34.66C 317.606 34.66 317.906 34.78 318.146 35.02C 318.426 35.26 318.566 35.58 318.566 35.98C 318.566 36.54 317.926 37.88 316.646 40C 315.326 42.2 314.266 44.18 313.466 45.94C 312.706 47.66 312.326 49.3 312.326 50.86C 312.326 52.26 312.546 53.22 312.986 53.74C 313.466 54.22 314.226 54.46 315.266 54.46C 318.386 54.46 321.466 51.4 324.506 45.28L 325.046 45.88C 323.926 49.24 322.266 51.86 320.066 53.74C 317.906 55.62 315.626 56.56 313.226 56.56ZM 325.659 71.8C 324.699 71.8 323.879 71.5 323.199 70.9C 322.519 70.34 322.179 69.48 322.179 68.32C 322.179 66.84 322.759 65.46 323.919 64.18C 325.079 62.94 326.399 61.86 327.879 60.94C 329.399 60.06 331.399 59 333.879 57.76C 334.999 54.88 336.019 51.58 336.939 47.86C 333.379 52.98 330.119 55.54 327.159 55.54C 325.759 55.54 324.659 55.02 323.859 53.98C 323.059 52.9 322.659 51.48 322.659 49.72C 322.659 47.08 323.499 44.56 325.179 42.16C 326.899 39.76 328.999 37.84 331.479 36.4C 333.999 34.92 336.359 34.18 338.559 34.18C 339.639 34.18 340.439 34.36 340.959 34.72C 341.519 35.08 341.799 35.54 341.799 36.1C 341.799 36.42 341.699 36.7 341.499 36.94C 341.339 37.14 341.199 37.26 341.079 37.3C 340.679 36.7 339.879 36.4 338.679 36.4C 336.679 36.4 334.739 37.16 332.859 38.68C 331.019 40.2 329.519 42.04 328.359 44.2C 327.199 46.36 326.619 48.3 326.619 50.02C 326.619 50.98 326.799 51.72 327.159 52.24C 327.559 52.72 328.079 52.96 328.719 52.96C 329.799 52.96 331.139 52.22 332.739 50.74C 334.379 49.26 335.999 47.36 337.599 45.04L 338.319 41.86C 338.479 41.1 338.799 40.4 339.279 39.76C 339.799 39.12 340.499 38.8 341.379 38.8C 341.739 38.8 342.159 38.86 342.639 38.98C 342.639 40.06 342.199 42.24 341.319 45.52C 340.439 48.76 339.339 52.06 338.019 55.42C 340.099 54.42 342.019 53.04 343.779 51.28C 345.579 49.48 346.919 47.48 347.799 45.28L 348.579 45.88C 347.739 48.32 346.219 50.54 344.019 52.54C 341.859 54.54 339.639 56.08 337.359 57.16C 335.479 61.72 333.579 65.3 331.659 67.9C 329.739 70.5 327.739 71.8 325.659 71.8ZM 325.479 69.88C 326.399 69.88 327.539 69 328.899 67.24C 330.299 65.52 331.739 62.9 333.219 59.38C 330.299 60.86 328.039 62.24 326.439 63.52C 324.839 64.8 324.039 66.22 324.039 67.78C 324.039 68.42 324.159 68.92 324.399 69.28C 324.679 69.68 325.039 69.88 325.479 69.88ZM 366.079 56.2C 364.719 56.2 363.679 55.84 362.959 55.12C 362.239 54.44 361.879 53.52 361.879 52.36C 361.879 51.84 361.959 51.24 362.119 50.56C 362.319 49.84 362.519 49.14 362.719 48.46C 362.959 47.74 363.159 46.98 363.319 46.18C 363.519 45.38 363.619 44.66 363.619 44.02C 363.619 42.06 362.819 41.08 361.219 41.08C 359.699 41.08 358.099 41.88 356.419 43.48C 354.779 45.08 353.299 46.86 351.979 48.82C 350.699 50.78 349.239 53.14 347.599 55.9C 346.919 55.9 346.299 55.78 345.739 55.54C 345.179 55.34 344.739 55.02 344.419 54.58C 344.419 54.38 344.679 53.66 345.199 52.42C 346.199 49.86 347.019 47.54 347.659 45.46C 348.299 43.34 348.639 41.46 348.679 39.82C 348.959 39.5 349.359 39.22 349.879 38.98C 350.399 38.7 350.919 38.56 351.439 38.56C 352.519 38.56 353.059 39.08 353.059 40.12C 353.059 40.72 352.879 41.78 352.519 43.3C 352.159 44.78 351.699 46.36 351.139 48.04C 353.059 45.08 355.099 42.58 357.259 40.54C 359.419 38.5 361.539 37.48 363.619 37.48C 365.099 37.48 366.199 38.02 366.919 39.1C 367.679 40.14 368.059 41.4 368.059 42.88C 368.059 43.76 367.939 44.6 367.699 45.4C 367.499 46.2 367.179 47.12 366.739 48.16C 366.379 49.04 366.099 49.8 365.899 50.44C 365.699 51.08 365.599 51.72 365.599 52.36C 365.599 53.88 366.199 54.64 367.399 54.64C 368.759 54.64 370.159 53.74 371.599 51.94C 373.079 50.14 374.479 47.92 375.799 45.28L 376.459 46.06C 373.579 52.82 370.119 56.2 366.079 56.2ZM 380.948 58.06C 378.348 58.06 376.448 57.28 375.248 55.72C 374.048 54.16 373.448 52.32 373.448 50.2C 373.448 48.6 373.728 47.48 374.288 46.84C 374.848 46.16 375.448 45.68 376.088 45.4C 376.768 45.12 377.168 44.92 377.288 44.8C 379.848 42 381.828 39.1 383.228 36.1L 383.228 35.38C 383.228 34.02 383.448 33 383.888 32.32C 384.368 31.64 384.928 31.3 385.568 31.3C 385.888 31.3 386.128 31.38 386.288 31.54C 386.448 31.66 386.528 31.84 386.528 32.08C 386.528 32.24 386.468 32.58 386.348 33.1C 386.228 33.58 386.168 34.12 386.168 34.72C 386.168 35.52 386.268 36.38 386.468 37.3C 386.708 38.18 387.068 39.34 387.548 40.78C 388.108 42.5 388.528 44 388.808 45.28C 389.128 46.56 389.288 47.86 389.288 49.18C 389.288 50.22 389.168 51.2 388.928 52.12C 390.368 51.88 391.708 51.24 392.948 50.2C 394.188 49.12 395.368 47.5 396.488 45.34L 397.028 45.94C 396.308 48.02 395.208 49.66 393.728 50.86C 392.248 52.06 390.548 52.8 388.628 53.08C 388.028 54.72 387.048 55.96 385.688 56.8C 384.328 57.64 382.748 58.06 380.948 58.06ZM 385.148 52.06C 385.308 51.02 385.388 50.08 385.388 49.24C 385.388 48.04 385.288 46.84 385.088 45.64C 384.888 44.44 384.588 43.06 384.188 41.5C 383.828 39.9 383.608 38.86 383.528 38.38C 381.488 41.74 379.548 44.34 377.708 46.18C 378.348 47.58 379.308 48.82 380.588 49.9C 381.908 50.98 383.428 51.7 385.148 52.06ZM 381.068 55.96C 382.908 55.96 384.168 54.98 384.848 53.02C 383.248 52.7 381.788 52.08 380.468 51.16C 379.148 50.2 378.148 49.16 377.468 48.04C 376.588 48.08 376.148 48.78 376.148 50.14C 376.148 51.66 376.588 53.02 377.468 54.22C 378.388 55.38 379.588 55.96 381.068 55.96Z"/>
</defs>
</svg>
